<?xml version="1.0" encoding="utf-8"?>
<!-- Generator: Adobe Illustrator 24.1.2, SVG Export Plug-In . SVG Version: 6.00 Build 0)  -->
<svg version="1.1" id="Layer_1" xmlns="http://www.w3.org/2000/svg" xmlns:xlink="http://www.w3.org/1999/xlink" x="0px" y="0px"
	 viewBox="0 0 543.7 466.3" style="enable-background:new 0 0 543.7 466.3;" xml:space="preserve">
<style type="text/css">
	.st0{fill:none;}
	.st1{fill:#EBF2FA;}
</style>
<g id="Path_9" transform="matrix(-0.848, 0.53, -0.53, -0.848, 700.298, 358.337)">
	<path class="st0" d="M294.3,130.2c153.4,2.1,278.9,94.8,280.4,206.9s-121.6,201.4-275,199.2c-153.4-2.1-278.9-94.7-280.4-206.9
		S140.9,128.1,294.3,130.2z"/>
	<path class="st1" d="M288.9,130.1c-150.9,0-271.2,88.4-269.7,199.3c1.5,112.2,127.1,204.8,280.4,206.9c1.8,0,3.6,0,5.3,0
		c150.9,0,271.2-88.4,269.7-199.3c-1.5-112.2-127.1-204.8-280.4-206.9C292.5,130.1,290.7,130.1,288.9,130.1 M288.9,120.1l5.5,0
		c158.5,2.2,288.7,99.4,290.3,216.8c0.6,45.7-17.9,88.9-53.6,125.1c-52.9,53.6-135.3,84.3-226.1,84.3l-5.5,0
		C141,544.1,10.8,446.9,9.2,329.5c-0.6-45.7,17.9-88.9,53.6-125.1C115.7,150.9,198.1,120.1,288.9,120.1z"/>
</g>
</svg>
