<?xml version="1.0" encoding="utf-8"?>
<!-- Generator: Adobe Illustrator 24.1.2, SVG Export Plug-In . SVG Version: 6.00 Build 0)  -->
<svg version="1.1" id="Layer_1" xmlns="http://www.w3.org/2000/svg" xmlns:xlink="http://www.w3.org/1999/xlink" x="0px" y="0px"
	 viewBox="0 0 347.7 288.4" style="enable-background:new 0 0 347.7 288.4;" xml:space="preserve">
<style type="text/css">
	.st0{fill:none;}
	.st1{fill:#05668D;}
	.st2{fill:#8BBDD0;}
</style>
<g id="Background_-_Ellipse_-_Light_Blue" transform="translate(185.31 29.682) rotate(47)">
	<path class="st0" d="M-108,77.1c-2.5,7.3-4.3,14.7-5.2,22.2c-0.6,4.6-0.8,9.1-0.7,13.5c0,1.8,0.1,3.5,0.3,5.2
		c0.1,1.7,0.3,3.4,0.6,5.1c0.2,1.2,0.4,2.4,0.6,3.6c0.4,1.8,0.8,3.6,1.2,5.3c0.3,1.2,0.6,2.3,1,3.5c0.2,0.6,0.4,1.1,0.6,1.7
		c0.2,0.6,0.4,1.1,0.6,1.7c0.4,1.1,0.8,2.2,1.3,3.3l0,0c0.2,0.6,0.5,1.1,0.7,1.7c0.2,0.5,0.5,1,0.7,1.5c0,0,0,0.1,0.1,0.1
		c0.2,0.4,0.4,0.8,0.6,1.2c0.6,1.2,1.2,2.3,1.8,3.5c1.1,2.1,2.4,4.1,3.7,6.1c0.7,1,1.3,2,2,3c0.1,0.2,0.2,0.3,0.4,0.5
		c0.3,0.4,0.6,0.9,1,1.3c0.4,0.5,0.8,1.1,1.2,1.6c0.3,0.4,0.6,0.7,0.9,1.1c0.3,0.4,0.7,0.8,1.1,1.3c1.3,1.5,2.6,2.9,3.9,4.3
		c0.2,0.2,0.5,0.5,0.7,0.7c0.3,0.3,0.7,0.7,1,1c1.5,1.5,3.1,3,4.8,4.4c0.7,0.6,1.4,1.2,2.2,1.8c0.7,0.6,1.5,1.2,2.2,1.8
		c0.8,0.6,1.5,1.2,2.3,1.7c0.8,0.6,1.6,1.1,2.4,1.7c0.9,0.6,1.8,1.2,2.8,1.9c0.5,0.3,0.9,0.6,1.4,0.9c0.5,0.3,0.9,0.6,1.4,0.9
		c1.4,0.9,2.9,1.7,4.4,2.6c0.5,0.3,1,0.6,1.5,0.8c0.7,0.4,1.4,0.8,2.1,1.1c2.4,1.2,4.9,2.4,7.4,3.5c1.3,0.6,2.6,1.1,3.9,1.6
		c0.2,0.1,0.3,0.1,0.5,0.2c1.8,0.7,3.6,1.4,5.5,2.1c0.7,0.2,1.3,0.5,2,0.7c1.4,0.5,2.8,0.9,4.2,1.4c0.7,0.2,1.4,0.4,2,0.6
		c2.1,0.6,4.3,1.2,6.4,1.8c1.3,0.3,2.6,0.6,3.9,0.9c0.9,0.2,1.8,0.4,2.7,0.6c1.4,0.3,2.8,0.6,4.2,0.9c1.4,0.3,2.8,0.5,4.3,0.8
		c0.2,0,0.4,0.1,0.7,0.1c0.8,0.1,1.6,0.2,2.3,0.4c0.8,0.1,1.5,0.2,2.3,0.3c0.7,0.1,1.4,0.2,2.1,0.3c-21.5-6-40.3-14.9-55.9-26.1"/>
	<path class="st0" d="M31.2-40.9c16.2-5.2,33.2-9.1,50.5-11.2c1.4-0.2,2.8-0.3,4.3-0.5c1-0.1,2.1-0.2,3.1-0.3c2.7-0.2,5.4-0.5,8-0.6
		c1.1-0.1,2.3-0.1,3.4-0.2c1.4-0.1,2.8-0.1,4.2-0.2c1,0,2-0.1,3-0.1c1.3,0,2.6,0,3.9,0c4,0,8,0.1,12,0.3c0.8,0,1.7,0.1,2.5,0.1
		c1.7,0.1,3.4,0.2,5.1,0.4c0.7,0.1,1.5,0.1,2.2,0.2c0.8,0.1,1.5,0.2,2.3,0.3c0.2,0,0.3,0,0.5,0c0.7,0.1,1.3,0.2,2,0.2
		c0.9,0.1,1.9,0.2,2.8,0.4c0.6,0.1,1.3,0.2,1.9,0.3c0.8,0.1,1.6,0.2,2.3,0.4c3.1,0.5,6.1,1.1,9.1,1.7c0.7,0.2,1.5,0.3,2.2,0.5
		c0.7,0.2,1.5,0.3,2.2,0.5c0.7,0.2,1.5,0.4,2.2,0.5s1.4,0.4,2.2,0.6c0.7,0.2,1.4,0.4,2.2,0.6c1.4,0.4,2.8,0.8,4.2,1.2c0,0,0,0,0,0
		c0.7,0.2,1.4,0.4,2.1,0.7c0.7,0.2,1.4,0.5,2.1,0.7c1.4,0.5,2.7,1,4,1.5c0.6,0.2,1.2,0.5,1.8,0.7c0.1,0,0.1,0,0.1,0.1
		c0.7,0.3,1.3,0.5,2,0.8c0.6,0.3,1.3,0.5,1.9,0.8c0.6,0.3,1.2,0.5,1.8,0.8c0.7,0.3,1.3,0.6,2,0.9c1.3,0.6,2.5,1.2,3.7,1.8
		c0.4,0.2,0.8,0.4,1.2,0.6c0.4,0.2,0.8,0.4,1.2,0.6c0.5,0.3,1,0.5,1.5,0.8c2.3,1.2,4.5,2.5,6.7,3.9c0.5,0.3,1.1,0.7,1.6,1
		c0.1,0,0.1,0.1,0.2,0.1c0.9,0.6,1.8,1.2,2.7,1.8c0.7,0.5,1.3,0.9,2,1.4c0.5,0.4,1,0.7,1.6,1.1c0.5,0.4,1,0.8,1.5,1.2
		c0,0,0.1,0,0.1,0.1c0.5,0.4,0.9,0.7,1.4,1.1c0.5,0.4,1,0.8,1.4,1.2c0.3,0.3,0.7,0.6,1,0.9c0.3,0.2,0.5,0.4,0.8,0.7
		c0.4,0.3,0.7,0.6,1.1,1c0.5,0.4,0.9,0.8,1.4,1.2C232-5.7,241.1,10,244.6,27.8c-5-9.5-11.7-18.4-19.8-26.6"/>
	<path class="st1" d="M-103.4,129.8c-6.5-16.4-8.3-34.3-4.6-52.7c-2.5,7.3-4.3,14.7-5.2,22.2c-0.6,4.6-0.8,9.1-0.7,13.5
		c0,1.8,0.1,3.5,0.3,5.2c0.1,1.7,0.3,3.4,0.6,5.1c0.2,1.2,0.4,2.4,0.6,3.6c0.4,1.8,0.8,3.6,1.2,5.3c0.3,1.2,0.6,2.3,1,3.5
		c0.2,0.6,0.4,1.1,0.6,1.7c0.2,0.6,0.4,1.1,0.6,1.7c0.4,1.1,0.8,2.2,1.3,3.3l0,0c0.2,0.6,0.5,1.1,0.7,1.7c0.2,0.5,0.5,1,0.7,1.5
		c0,0,0,0.1,0.1,0.1c0.2,0.4,0.4,0.8,0.6,1.2c0.6,1.2,1.2,2.3,1.8,3.5c1.1,2.1,2.4,4.1,3.7,6.1c0.7,1,1.3,2,2,3
		c0.1,0.2,0.2,0.3,0.4,0.5c0.3,0.4,0.6,0.9,1,1.3c0.4,0.5,0.8,1.1,1.2,1.6c0.3,0.4,0.6,0.7,0.9,1.1c0.3,0.4,0.7,0.8,1.1,1.3
		c1.3,1.5,2.6,2.9,3.9,4.3c0.2,0.2,0.5,0.5,0.7,0.7c0.3,0.3,0.7,0.7,1,1c1.5,1.5,3.1,3,4.8,4.4c0.7,0.6,1.4,1.2,2.2,1.8
		c0.7,0.6,1.5,1.2,2.2,1.8c0.8,0.6,1.5,1.2,2.3,1.7c0.8,0.6,1.6,1.1,2.4,1.7c0.9,0.6,1.8,1.2,2.8,1.9c0.5,0.3,0.9,0.6,1.4,0.9
		c0.5,0.3,0.9,0.6,1.4,0.9c1.4,0.9,2.9,1.7,4.4,2.6c0.5,0.3,1,0.6,1.5,0.8c0.7,0.4,1.4,0.8,2.1,1.1c2.4,1.2,4.9,2.4,7.4,3.5
		c1.3,0.6,2.6,1.1,3.9,1.6c0.2,0.1,0.3,0.1,0.5,0.2c1.8,0.7,3.6,1.4,5.5,2.1c0.7,0.2,1.3,0.5,2,0.7c1.4,0.5,2.8,0.9,4.2,1.4
		c0.7,0.2,1.4,0.4,2,0.6c2.1,0.6,4.3,1.2,6.4,1.8c1.3,0.3,2.6,0.6,3.9,0.9c0.9,0.2,1.8,0.4,2.7,0.6c1.4,0.3,2.8,0.6,4.2,0.9
		c1.4,0.3,2.8,0.5,4.3,0.8c0.2,0,0.4,0.1,0.7,0.1c0.8,0.1,1.6,0.2,2.3,0.4c0.8,0.1,1.5,0.2,2.3,0.3c0.7,0.1,1.4,0.2,2.1,0.3
		c-21.5-6-40.3-14.9-55.9-26.1c-9.5-5.5-17.7-12.1-24.4-19.6C-94.7,152-100.4,141.3-103.4,129.8z M224.8,1.2
		c8.1,8.1,14.8,17.1,19.8,26.6C241.1,10,232-5.7,218.4-18.3c-0.5-0.4-0.9-0.8-1.4-1.2c-0.4-0.3-0.7-0.6-1.1-1
		c-0.3-0.2-0.5-0.5-0.8-0.7c-0.3-0.3-0.7-0.6-1-0.9c-0.5-0.4-0.9-0.8-1.4-1.2c-0.5-0.4-0.9-0.7-1.4-1.1c0,0-0.1,0-0.1-0.1
		c-0.5-0.4-1-0.8-1.5-1.2c-0.5-0.4-1-0.8-1.6-1.1c-0.6-0.5-1.3-0.9-2-1.4c-0.9-0.6-1.8-1.2-2.7-1.8c-0.1,0-0.1-0.1-0.2-0.1
		c-0.5-0.3-1.1-0.7-1.6-1c-2.1-1.3-4.4-2.6-6.7-3.9c-0.5-0.3-1-0.5-1.5-0.8c-0.4-0.2-0.8-0.4-1.2-0.6c-0.4-0.2-0.8-0.4-1.2-0.6
		c-1.2-0.6-2.5-1.2-3.7-1.8c-0.7-0.3-1.3-0.6-2-0.9c-0.6-0.3-1.2-0.5-1.8-0.8c-0.6-0.3-1.3-0.5-1.9-0.8c-0.7-0.3-1.3-0.5-2-0.8
		c0,0-0.1,0-0.1-0.1c-0.6-0.2-1.2-0.5-1.8-0.7c-1.3-0.5-2.7-1-4-1.5c-0.7-0.2-1.4-0.5-2.1-0.7c-0.7-0.2-1.4-0.4-2.1-0.7c0,0,0,0,0,0
		c-1.4-0.4-2.8-0.8-4.2-1.2c-0.7-0.2-1.4-0.4-2.2-0.6c-0.7-0.2-1.4-0.4-2.2-0.6c-0.7-0.2-1.4-0.4-2.2-0.5c-0.7-0.2-1.5-0.4-2.2-0.5
		c-0.7-0.2-1.5-0.3-2.2-0.5c-3-0.6-6-1.2-9.1-1.7c-0.8-0.1-1.6-0.2-2.3-0.4c-0.6-0.1-1.3-0.2-1.9-0.3c-0.9-0.1-1.8-0.2-2.8-0.4
		c-0.7-0.1-1.3-0.2-2-0.2c-0.2,0-0.3,0-0.5,0c-0.8-0.1-1.5-0.2-2.3-0.3c-0.7-0.1-1.5-0.1-2.2-0.2c-1.7-0.2-3.4-0.3-5.1-0.4
		c-0.8,0-1.7-0.1-2.5-0.1c-3.9-0.2-7.9-0.3-12-0.3c-1.3,0-2.6,0-3.9,0c-1,0-2,0-3,0.1c-1.4,0-2.8,0.1-4.2,0.2
		c-1.1,0.1-2.3,0.1-3.4,0.2c-2.7,0.2-5.3,0.4-8,0.6c-1,0.1-2.1,0.2-3.1,0.3c-1.4,0.1-2.8,0.3-4.3,0.5c-17.3,2.1-34.3,5.9-50.5,11.2
		c26.5-6.2,54.7-8.3,83-5.5c1.7,0.2,3.3,0.4,5,0.6c42.6,1.5,78.6,15.6,99.5,39.2C221-4,223-1.5,224.8,1.2z"/>
</g>
<g id="Background_-_Ellipse_-_Dark_Blue" transform="translate(232.992 30.826) rotate(59)">
	<path class="st2" d="M212.8,22.1c1.9,2.1,3.6,4.2,5.3,6.3c5,6.7,9,13.9,11.8,21.5c4.5,12,6.1,25.1,4.8,38.7
		C228.5,152,162,211.3,80.7,230.2c-9.3,2.2-18.8,3.8-28.4,4.9c-8.1,0.9-16.3,1.3-24.2,1.3c-0.1,0-0.2,0-0.3,0
		c-45-0.1-84.1-14.8-107.3-40.4c-16.7-18.4-24.3-41.5-21.8-66.6c0.1-1.4,0.3-2.7,0.5-4.1C-94.9,83.2-62.4,43-16.9,15.9
		c4.3-2.5,8.7-5,13.2-7.3C21.9-4.5,50.9-13.6,81.1-16.9c8.1-0.9,16.3-1.3,24.2-1.3C150.4-18.2,189.6-3.5,212.8,22.1z"/>
	<path class="st0" d="M-16.9,15.9l13.2-7.3C-8.2,10.9-12.6,13.4-16.9,15.9z"/>
</g>
</svg>
