<?xml version="1.0" encoding="utf-8"?>
<!-- Generator: Adobe Illustrator 24.1.2, SVG Export Plug-In . SVG Version: 6.00 Build 0)  -->
<svg version="1.1" id="Layer_1" xmlns="http://www.w3.org/2000/svg" xmlns:xlink="http://www.w3.org/1999/xlink" x="0px" y="0px"
	 viewBox="0 0 408.5 246.1" style="enable-background:new 0 0 408.5 246.1;" xml:space="preserve">
<style type="text/css">
	.st0{fill:none;}
	.st1{fill:#7FC6D4;}
	.st2{fill:#EBF2FA;}
	.st3{fill:#FFFFFF;}
</style>
<g id="Ellipse_-_Bottom_-_Dark_Blue" transform="translate(-3.125 87.472) rotate(-13)">
	<path class="st0" d="M383.3,82.2C341,2.4,147.6-49,58.5-10.4c-9.9,3.6-19,8-26.8,13.2C15,13.7,4.9,27,1.7,42.3
		c-0.3,1.4-0.5,2.8-0.7,4.3c-6.3,53,72.4,115.3,175.8,137.7c11.9,2.6,23.8,4.6,35.5,6 M390.1,73.8C356.7-37.6,170.1-62.7,73.2-25.3
		c22.6-5.8,48.6-8.5,76.6-7.7 M170.8,188c-17.4-2-34.2-5.4-50-9.8C61.7,161.5,16.4,129.3,2.3,91.8C-4.9,79.4-8.9,66.9-9.3,54.4
		c-0.1,0.8-0.3,1.6-0.4,2.4c0,0.1,0,0.1,0,0.2c-0.2,1.5-0.4,3-0.5,4.6c0,0.1,0,0.2,0,0.3c-0.1,1.2-0.1,2.3-0.2,3.5
		c0,1.6,0,3.3,0.1,5C-9,99.7,10,127.3,40.4,149.3c32.6,23,67.2,35.7,108.4,43.6c0,0,0,0,0,0c77.6,15.6,223.7,0.5,242.3-93.8"/>
	<path class="st1" d="M196.3,198c-25.5-3.8-52.2-11.1-75.5-19.8C61.7,161.5,16.4,129.3,2.3,91.8C-4.9,79.4-8.9,66.9-9.3,54.4
		c0.1-0.6,0.2-1.1,0.3-1.7c-0.1,0.5-0.2,1.1-0.3,1.7c-0.1,0.8-0.3,1.6-0.4,2.4c0,0.1,0,0.1,0,0.2c-0.2,1.5-0.4,3-0.5,4.6
		c0,0.1,0,0.2,0,0.3c-0.1,1.2-0.1,2.3-0.2,3.5c0,1.6,0,3.3,0.1,5C-9,99.7,10,127.3,40.4,149.3c32.6,23,67.2,35.7,108.4,43.6
		c0,0,0,0,0,0c17.2,3.1,34.6,4.9,52.1,5.3C199.4,198.1,197.8,198.1,196.3,198z M31.7,2.8C15,13.7,4.9,27,1.7,42.3
		c-0.3,1.4-0.5,2.8-0.7,4.3c3.5-10.3,9.6-20.1,18.3-29.2C29.6,6.5,42.9-2.8,58.5-10.4C48.6-6.8,39.6-2.4,31.7,2.8z M235.1,197.3
		c-0.3,0-0.6,0.1-0.9,0.1c1-0.1,2-0.1,3-0.2C236.4,197.2,235.8,197.2,235.1,197.3z M391.1,99c-1.8-5.6-4.4-11.2-7.8-16.8
		c0.6,78.9-88.9,105.2-171,108.1c26,2.4,50.2,5.5,74.3-1.6C331.5,176.5,383.3,149.2,391.1,99z M341,7.2
		C265.8-44.6,159.8-55.6,73.2-25.3C195.9-50.5,333.5-26,390.1,73.8C384.7,49.1,367.1,26.1,341,7.2z"/>
</g>
<g id="Ellipse_-_Top_-_Light_Blue" transform="matrix(1, -0.017, 0.017, 1, 18.595, 58.725)">
	<path class="st2" d="M248.8,172.3c0.7-0.2,1.3-0.4,1.9-0.6C250.1,171.9,249.5,172.2,248.8,172.3z"/>
	<path class="st2" d="M388.7,71.1c0.1,15.6-7,30.7-21.1,44.8c-40,40.2-118.4,56.5-178.6,55.8C83.4,171.3-6.6,126.8-11.5,73.6
		c-0.1-1.4-0.2-2.9-0.2-4.3c-0.1-15.6,7-30.7,21.1-44.8C16,17.8,23.9,11.6,32.9,6c85.3-57.6,294.9-49.5,348,37.7
		C385.9,52.4,388.7,61.6,388.7,71.1z"/>
	<path class="st3" d="M-20,81.8c0,0.6,0,1.1,0,1.7c0,0,0,0,0,0C-20,83-20,82.4-20,81.8z M248.8,172.3c-0.3,0.1-0.6,0.2-0.9,0.3
		c1-0.3,1.9-0.6,2.8-0.9C250.1,171.9,249.4,172.1,248.8,172.3z M211,181.1c-0.2,0-0.4,0.1-0.7,0.1c1.8-0.3,3.5-0.6,5.2-0.9
		C214,180.6,212.5,180.9,211,181.1z"/>
</g>
</svg>
