<?xml version="1.0" encoding="utf-8"?>
<!-- Generator: Adobe Illustrator 24.1.2, SVG Export Plug-In . SVG Version: 6.00 Build 0)  -->
<svg version="1.1" id="Layer_1" xmlns="http://www.w3.org/2000/svg" xmlns:xlink="http://www.w3.org/1999/xlink" x="0px" y="0px"
	 viewBox="0 0 405.5 266" style="enable-background:new 0 0 405.5 266;" xml:space="preserve">
<style type="text/css">
	.st0{fill:none;}
	.st1{fill:#7FC6D4;}
	.st2{fill:#FFFFFF;}
	.st3{fill:#F7FCFE;}
</style>
<g id="Ellipse_-_Bottom_-_Dark_Blue" transform="translate(-3.941 87.337) rotate(-13)">
	<path class="st0" d="M220.6-26.7l-1,4.9c0.1,0,0.2,0,0.4,0.1L220.6-26.7z M220.6-26.7l-1,4.9c0.1,0,0.2,0,0.4,0.1L220.6-26.7z
		 M87.4,191.5C47.3,170.8,16.6,143.4,0.6,114c-8.1-14.8-12.4-30-12.4-45.2c-1,5.6-1.5,11.3-1.3,17.2c0.2,9.5,2,18.8,5.2,27.8
		c0.6,1.7,1.3,3.4,2,5.1c0.5,1.3,1.1,2.5,1.7,3.8c0.6,1.3,1.2,2.5,1.8,3.7c0.3,0.6,0.7,1.2,1,1.8c1,1.9,2.1,3.7,3.2,5.5
		c27,43.6,88,76.8,161,85.1C135.2,212.5,109.8,203.1,87.4,191.5z M220.6-26.7l-1,4.9c0.1,0,0.2,0,0.4,0.1L220.6-26.7z M220.6-26.7
		l-1,4.9c0.1,0,0.2,0,0.4,0.1L220.6-26.7z M219.9-21.8l-0.7,5c16.3,3.5,31.8,8.1,46.4,13.5c24.6,9.1,46.6,20.7,65.1,33.8
		c22.8,16.1,40.2,34.7,50.7,54c-0.8-5.1-2.1-10.1-3.8-15.1c-2.4-6.7-5.6-13.3-9.6-19.6c-29.1-45.9-99.3-79.7-180.5-82
		c-30.5-3.5-59.7-2.6-85.8,2c0.2-0.1,0.4-0.1,0.6-0.2c1.3-0.4,2.7-0.7,4-1.1c1.9-0.5,3.7-0.9,5.6-1.4c0.8-0.2,1.7-0.4,2.5-0.6
		c2.5-0.6,5.1-1.1,7.7-1.6c1.1-0.2,2.1-0.4,3.2-0.6c1-0.2,2-0.4,3-0.5c0.9-0.2,1.8-0.3,2.6-0.4c1.3-0.2,2.6-0.4,3.9-0.6
		c0.8-0.1,1.5-0.2,2.3-0.3c0.8-0.1,1.5-0.2,2.3-0.3c0.7-0.1,1.4-0.2,2.1-0.3c0.8-0.1,1.7-0.2,2.5-0.3c0.3,0,0.6-0.1,0.9-0.1
		c1.1-0.1,2.2-0.2,3.3-0.3c0.6-0.1,1.1-0.1,1.7-0.2c1.1-0.1,2.2-0.2,3.3-0.3c1.5-0.1,2.9-0.2,4.4-0.3c0.1,0,0.2,0,0.3,0
		c1.2-0.1,2.3-0.2,3.5-0.2c0.9-0.1,1.9-0.1,2.8-0.1c0.4,0,0.8,0,1.2,0c1-0.1,2.1-0.1,3.2-0.1c0.6,0,1.1,0,1.7,0c0.9,0,1.7,0,2.6-0.1
		c0.7,0,1.4,0,2.1,0c0.9,0,1.8,0,2.7,0c0.3,0,0.6,0,0.9,0c0.3,0,0.6,0,1,0c0.7,0,1.3,0,2,0c1.3,0,2.6,0,3.9,0.1
		c5.5,0.1,10.9,0.4,16.2,0.8c2.7,0.2,5.3,0.4,8,0.7c2.7,0.3,5.3,0.6,7.9,0.9c2.5,0.3,5,0.6,7.5,1c0.2,0,0.4,0.1,0.6,0.1
		c20.9,3.2,40.7,8.4,58.8,15.3c2.5,1,5.1,2,7.6,3c2.5,1,4.9,2.1,7.3,3.2c1.5,0.7,3,1.4,4.5,2.1c1.5,0.7,3,1.4,4.4,2.2
		c1.5,0.7,2.9,1.5,4.3,2.2c1.4,0.8,2.8,1.5,4.2,2.3c2.2,1.2,4.4,2.5,6.6,3.8c0.8,0.5,1.6,1,2.4,1.5c1.6,1,3.1,2,4.7,3.1
		c0.8,0.5,1.5,1,2.3,1.6c1,0.7,2,1.4,3,2.1c2,1.4,3.9,2.9,5.8,4.3c5.7,4.4,10.9,9,15.7,13.9c1.1,1.1,2.1,2.2,3.2,3.3
		c0.7,0.7,1.4,1.5,2,2.2c0.3,0.4,0.7,0.7,1,1.1c1,1.1,2,2.3,2.9,3.4c2.5,3.1,4.8,6.2,7,9.4c0.5,0.8,1.1,1.6,1.6,2.4
		c6.2,9.7,10.7,19.9,13.2,30.5c1.2,5.1,2,10.3,2.3,15.6c0.1,1,0.1,2,0.1,3c0.1,3.7-0.1,7.3-0.4,10.9l0,0c-0.6,5.5-1.7,10.8-3.2,16
		c-0.2,0.5-0.3,0.9-0.4,1.4c-0.3,0.9-0.6,1.9-1,2.8c-0.2,0.5-0.3,0.9-0.5,1.4c-0.2,0.5-0.3,0.9-0.5,1.4c-0.2,0.5-0.4,0.9-0.6,1.4
		c-0.2,0.5-0.4,0.9-0.6,1.4c-0.3,0.8-0.7,1.6-1.1,2.3c-0.2,0.4-0.4,0.8-0.6,1.2c-0.1,0.2-0.2,0.5-0.3,0.7c-0.2,0.4-0.4,0.8-0.6,1.3
		c-0.8,1.6-1.7,3.2-2.6,4.8c-0.2,0.4-0.5,0.8-0.7,1.2c-0.8,1.3-1.6,2.6-2.5,3.9c-0.3,0.4-0.6,0.8-0.8,1.3c-0.6,0.8-1.2,1.7-1.8,2.5
		c-0.3,0.4-0.6,0.8-0.9,1.2c-0.3,0.4-0.6,0.8-0.9,1.2c-1.8,2.3-3.7,4.6-5.7,6.9c-0.3,0.4-0.7,0.8-1,1.1c-2.6,2.8-5.4,5.6-8.3,8.3
		c-0.8,0.7-1.6,1.4-2.4,2.1c0,0,0,0,0,0c-0.7,0.6-1.4,1.2-2.1,1.8c-1.4,1.2-2.8,2.3-4.3,3.5c-0.4,0.3-0.8,0.6-1.2,0.9
		c-2.9,2.2-5.8,4.3-8.9,6.3c-1.3,0.9-2.7,1.7-4,2.6c-0.5,0.3-1,0.6-1.5,0.9c-0.5,0.3-1,0.6-1.5,0.9c-1.5,0.9-3.1,1.8-4.7,2.7
		c-1,0.6-2,1.1-3,1.6c-0.2,0.1-0.4,0.2-0.5,0.3c-0.9,0.5-1.9,1-2.8,1.5c0,0,0,0,0,0c-1.1,0.5-2.2,1.1-3.3,1.6
		c-0.9,0.5-1.9,0.9-2.8,1.4c-0.8,0.4-1.6,0.7-2.4,1.1c-0.7,0.3-1.4,0.6-2.1,0.9c-1,0.4-1.9,0.9-2.9,1.3c-3.6,1.5-7.3,3-11,4.3
		c-2.1,0.8-4.2,1.5-6.4,2.2c-6.5,2.2-13.2,4.1-20.1,5.8c-1.3,0.3-2.7,0.6-4,0.9c-1.1,0.3-2.3,0.5-3.5,0.8c-0.8,0.2-1.5,0.3-2.3,0.5
		c-1,0.2-2,0.4-3,0.6c-0.1,0-0.2,0-0.3,0c-1.3,0.3-2.6,0.5-3.9,0.7c-0.2,0-0.4,0.1-0.7,0.1c-1.1,0.2-2.3,0.4-3.4,0.6
		c-1.3,0.2-2.6,0.4-3.9,0.6c-0.5,0.1-1.1,0.2-1.6,0.2c0,0,0,0,0,0c-0.2,0-0.4,0.1-0.7,0.1c-0.8,0.1-1.5,0.2-2.3,0.3
		c-0.8,0.1-1.6,0.2-2.4,0.3c-0.5,0.1-1.1,0.1-1.7,0.2c-0.9,0.1-1.7,0.2-2.6,0.3c-1.1,0.1-2.3,0.2-3.4,0.3c-1.1,0.1-2.2,0.2-3.2,0.3
		c-1.3,0.1-2.5,0.2-3.8,0.3c-1,0.1-2,0.1-2.9,0.2c-0.6,0-1.1,0.1-1.7,0.1c-1.2,0.1-2.5,0.1-3.7,0.2c-0.1,0-0.2,0-0.3,0
		c-1.2,0.1-2.5,0.1-3.7,0.1c-0.4,0-0.9,0-1.4,0c-0.9,0-1.9,0.1-2.8,0.1c-0.4,0-0.9,0-1.3,0c0,0,0,0,0,0 M180.3,212.5
		c-2.7-0.5-5.4-1-8.1-1.6C66.3,188.1-9.7,121-1.2,59.6c0.2-1.6,0.5-3.2,0.8-4.8C2,43.6,7.2,33.1,15.1,23.6
		c4.4-5.3,9.7-10.3,15.7-14.8c2.2-1.7,4.5-3.3,6.9-4.8C50.6-4.5,66-11,83.2-15.7c39.2-10.7,87.3-11.5,135.4-1.2"/>
	<path class="st1" d="M87.4,191.5C44.8,173.6,13.1,145.9,0.6,114c-8.1-14.8-12.4-30-12.4-45.2c-1,5.6-1.5,11.3-1.3,17.2
		c0.2,9.5,2,18.8,5.2,27.8c0.6,1.7,1.3,3.4,2,5.1c0.5,1.3,1.1,2.5,1.7,3.8c0.6,1.3,1.2,2.5,1.8,3.7c0.3,0.6,0.7,1.2,1,1.8
		c1,1.9,2.1,3.7,3.2,5.5c27,43.6,88,76.8,161,85.1C135.2,212.5,109.8,203.1,87.4,191.5z M37.7,3.9c-2.4,1.6-4.7,3.2-6.9,4.8
		c-6,4.6-11.3,9.6-15.7,14.8C7.2,33.1,2,43.6-0.4,54.7c-0.3,1.6-0.6,3.2-0.8,4.8C3.1,46.4,11,33.9,22.1,22.5
		c15.6-15.9,36.6-28.9,61-38.2C66-11,50.6-4.5,37.7,3.9z M101.7-30.2c-0.3,0.1-0.6,0.2-0.9,0.3C101.1-30,101.4-30.1,101.7-30.2
		C101.7-30.2,101.7-30.2,101.7-30.2z M374.8,45.7c-0.5-0.8-1-1.6-1.6-2.4c-2.1-3.2-4.5-6.3-7-9.4c-0.9-1.1-1.9-2.3-2.9-3.4
		c-0.3-0.4-0.7-0.8-1-1.1c-0.7-0.7-1.3-1.5-2-2.2c-1-1.1-2.1-2.2-3.2-3.3c-4.8-4.8-10-9.5-15.7-13.9c-1.9-1.5-3.8-2.9-5.8-4.3
		c-1-0.7-2-1.4-3-2.1c-0.8-0.5-1.5-1-2.3-1.6c-1.5-1-3.1-2-4.7-3.1c-0.8-0.5-1.6-1-2.4-1.5c-2.1-1.3-4.3-2.6-6.6-3.8
		c-1.4-0.8-2.8-1.6-4.2-2.3c-1.4-0.8-2.9-1.5-4.3-2.2c-1.4-0.7-2.9-1.5-4.4-2.2c-1.5-0.7-3-1.4-4.5-2.1c-2.4-1.1-4.9-2.2-7.3-3.2
		c-2.5-1-5-2.1-7.6-3c-18.1-6.9-37.9-12.1-58.8-15.3c-0.2,0-0.4-0.1-0.6-0.1c-2.5-0.4-5-0.7-7.5-1c-2.6-0.3-5.2-0.6-7.9-0.9
		c-2.6-0.3-5.3-0.5-8-0.7c-5.3-0.4-10.8-0.6-16.2-0.8c-1.3,0-2.6,0-3.9-0.1c-0.7,0-1.3,0-2,0c-0.3,0-0.6,0-1,0c-0.3,0-0.6,0-0.9,0
		c-0.9,0-1.8,0-2.7,0c-0.7,0-1.4,0-2.1,0c-0.9,0-1.7,0-2.6,0.1c-0.6,0-1.1,0-1.7,0c-1.1,0-2.1,0.1-3.2,0.1c-0.4,0-0.8,0-1.2,0
		c-1,0-1.9,0.1-2.8,0.1c-1.2,0.1-2.3,0.1-3.5,0.2c-0.1,0-0.2,0-0.3,0c-1.5,0.1-3,0.2-4.4,0.3c-1.1,0.1-2.2,0.2-3.3,0.3
		c-0.6,0.1-1.2,0.1-1.7,0.2c-1.1,0.1-2.2,0.2-3.3,0.3c-0.3,0-0.6,0.1-0.9,0.1c-0.8,0.1-1.7,0.2-2.5,0.3c-0.7,0.1-1.4,0.2-2.1,0.3
		c-0.8,0.1-1.5,0.2-2.3,0.3c-0.8,0.1-1.6,0.2-2.3,0.3c-1.3,0.2-2.6,0.4-3.9,0.6c-0.9,0.1-1.8,0.3-2.6,0.4c-1,0.2-2,0.3-3,0.5
		c-1.1,0.2-2.1,0.4-3.2,0.6c-2.6,0.5-5.1,1-7.7,1.6c-0.8,0.2-1.7,0.4-2.5,0.6c-1.9,0.4-3.8,0.9-5.6,1.4c-1.3,0.3-2.7,0.7-4,1.1
		c-0.2,0.1-0.4,0.1-0.6,0.2c26.1-4.6,55.3-5.5,85.8-2c81.2,2.3,151.4,36.1,180.5,82c7.9,8.5,14.6,17.3,19.9,26.3
		C385.4,65.6,381,55.4,374.8,45.7z"/>
	<path class="st2" d="M330.8,30.5L265.7-3.3C290.3,5.8,312.3,17.3,330.8,30.5z"/>
</g>
<g id="Ellipse_-_Top_-_Light_Blue" transform="matrix(1, -0.017, 0.017, 1, 21.404, 54.515)">
	<path class="st3" d="M6.1,34.5L-6.2,52.3C-3,46.2,1.1,40.3,6.1,34.5z"/>
	<path class="st3" d="M185-29.7c16.6,0,32.8,1.2,48.2,3.5c25.9,3.8,49.9,10.5,70.7,19.5c25.6,11,46.6,25.5,60.8,42.3
		c1.2,3.2,2.3,6.6,3.1,10c5.2,22,0.6,45.4-13.5,67.6c-25.6,40.5-78.6,72.7-141.7,86.2c-2.2,0.5-4.3,0.9-6.5,1.3
		c-3.8,0.7-7.6,1.4-11.5,2c-2.7,0.1-5.5,0.1-8.2,0.1c-108.3-0.2-196.6-50-201.1-111.8c-0.1-1.6-0.2-3.2-0.2-4.9
		c0-11.4,2.9-22.8,8.7-33.7C-3,46.2,1.1,40.3,6.1,34.5c1.8-2.1,3.7-4.1,5.7-6.2C22.7,17.5,36.4,7.8,52.2-0.3
		c36.1-18.6,83-29.4,132.1-29.4"/>
	<path class="st2" d="M-6.2,52.3L6.1,34.5C1.1,40.3-3,46.2-6.2,52.3z M-6.2,52.3L6.1,34.5C1.1,40.3-3,46.2-6.2,52.3z M-6.2,52.3
		L6.1,34.5C1.1,40.3-3,46.2-6.2,52.3z M67.3-18.3c-0.3,0.1-0.6,0.3-0.8,0.5C66.7-18,67-18.2,67.3-18.3
		C67.3-18.3,67.3-18.3,67.3-18.3z M-6.2,52.3L6.1,34.5C1.1,40.3-3,46.2-6.2,52.3z M-6.2,52.3L6.1,34.5C1.1,40.3-3,46.2-6.2,52.3z
		 M-6.2,52.3L6.1,34.5C1.1,40.3-3,46.2-6.2,52.3z"/>
</g>
</svg>
