<?xml version="1.0" encoding="utf-8"?>
<!-- Generator: Adobe Illustrator 24.1.2, SVG Export Plug-In . SVG Version: 6.00 Build 0)  -->
<svg version="1.1" id="Layer_1" xmlns="http://www.w3.org/2000/svg" xmlns:xlink="http://www.w3.org/1999/xlink" x="0px" y="0px"
	 viewBox="0 0 42 41.4" style="enable-background:new 0 0 42 41.4;" xml:space="preserve">
<style type="text/css">
	.st0{fill:#679436;}
</style>
<g id="Outline_1_">
	<path class="st0" d="M39.6,2L39.6,2C39.9,2.1,40,2.8,40,3.3l0,26.1c0,0.7-0.3,0.7-0.5,0.7H13.2h-0.9l-0.6,0.7L7.2,36v-4.1v-2h-2
		H2.1h0c0,0,0,0,0,0C2,29.9,2,29.7,2,29.5L2,3.3c0-0.4,0.1-1,0.3-1.2C5.4,2.1,37.7,2,39.6,2C39.5,2,39.5,2,39.6,2L39.6,2
		C39.6,2,39.6,2,39.6,2 M39.6,0c0,0-35.4,0.1-37.5,0.1C0,0.1,0,3.3,0,3.3s0,23.6,0,26.1c0,2.4,1.8,2.5,2.1,2.5c0,0,0,0,0,0h3.1v9.5
		l8-9.3c0,0,23.8,0,26.3,0c2.5,0,2.5-2.7,2.5-2.7s0-22.9,0-26.2S39.6,0,39.6,0L39.6,0z"/>
</g>
<g id="Dots">
	<circle id="Right_1_" class="st0" cx="29" cy="16.2" r="2.1"/>
	<circle id="Middle" class="st0" cx="21" cy="16.2" r="2.1"/>
	<g id="Left_1_">
		<circle class="st0" cx="13" cy="16.2" r="2.1"/>
	</g>
</g>
</svg>
