<?xml version="1.0" encoding="utf-8"?>
<!-- Generator: Adobe Illustrator 24.1.2, SVG Export Plug-In . SVG Version: 6.00 Build 0)  -->
<svg version="1.1" id="Layer_1" xmlns="http://www.w3.org/2000/svg" xmlns:xlink="http://www.w3.org/1999/xlink" x="0px" y="0px"
	 viewBox="0 0 40.9 40.3" style="enable-background:new 0 0 40.9 40.3;" xml:space="preserve">
<style type="text/css">
	.st0{fill:#679436;}
	.st1{fill:none;}
	.st2{fill:none;stroke:#679436;stroke-width:2;stroke-linecap:round;stroke-miterlimit:10;}
</style>
<path class="st0" d="M1.9,38.6v-37h8.4v8.4v28.6H1.9z M17.1,11.8v26.9h-5V11.8H17.1z M18.7,1.7h8.4v1.7v35.3h-8.4V10.1V1.7z M38.9,5
	v33.6H28.8V5H38.9z M12,40.3h5h1.7h8.4h1.7h11.8v-37H28.8V0H17.1v10.1h-5V0H0.3v40.3h10.1H12z"/>
<polyline class="st1" points="41.4,41.2 -0.6,41.2 -0.6,-0.8 41.4,-0.8 "/>
<polyline class="st1" points="41.4,41.2 -0.6,41.2 -0.6,-0.8 41.4,-0.8 "/>
<polyline class="st1" points="41.4,41.2 -0.6,41.2 -0.6,-0.8 41.4,-0.8 "/>
<polyline class="st1" points="41.4,41.2 -0.6,41.2 -0.6,-0.8 41.4,-0.8 "/>
<polyline class="st1" points="41.4,41.2 -0.6,41.2 -0.6,-0.8 41.4,-0.8 "/>
<polyline class="st1" points="41.4,41.2 -0.6,41.2 -0.6,-0.8 41.4,-0.8 "/>
<polyline class="st1" points="41.4,41.2 -0.6,41.2 -0.6,-0.8 41.4,-0.8 "/>
<polyline class="st1" points="41.4,41.2 -0.6,41.2 -0.6,-0.8 41.4,-0.8 "/>
<polyline class="st1" points="41.4,41.2 -0.6,41.2 -0.6,-0.8 41.4,-0.8 "/>
<polyline class="st1" points="41.4,41.2 -0.6,41.2 -0.6,-0.8 41.4,-0.8 "/>
<polyline class="st1" points="41.4,41.2 -0.6,41.2 -0.6,-0.8 41.4,-0.8 "/>
<polyline class="st1" points="41.4,41.2 -0.6,41.2 -0.6,-0.8 41.4,-0.8 "/>
<polyline class="st1" points="41.4,41.2 -0.6,41.2 -0.6,-0.8 41.4,-0.8 "/>
<polyline class="st1" points="41.4,41.2 -0.6,41.2 -0.6,-0.8 41.4,-0.8 "/>
<polyline class="st1" points="41.4,41.2 -0.6,41.2 -0.6,-0.8 41.4,-0.8 "/>
<line class="st2" x1="4.5" y1="27.7" x2="7.7" y2="27.7"/>
<line class="st2" x1="4.5" y1="31.9" x2="7.7" y2="31.9"/>
<line class="st2" x1="4.5" y1="36.1" x2="7.7" y2="36.1"/>
<line class="st2" x1="21.4" y1="26" x2="24.4" y2="26"/>
<line class="st2" x1="21.4" y1="29.4" x2="24.4" y2="29.4"/>
<line class="st2" x1="21.4" y1="32.8" x2="24.4" y2="32.8"/>
<line class="st2" x1="21.4" y1="36.1" x2="24.4" y2="36.1"/>
<line class="st2" x1="31.5" y1="27.7" x2="36.2" y2="27.7"/>
<line class="st2" x1="31.5" y1="31.9" x2="36.2" y2="31.9"/>
<line class="st2" x1="31.5" y1="36.1" x2="36.2" y2="36.1"/>
<line class="st2" x1="21.4" y1="5" x2="24.5" y2="5"/>
<line class="st2" x1="21.4" y1="8.4" x2="24.5" y2="8.4"/>
<line class="st2" x1="33.7" y1="9.2" x2="33.9" y2="9.2"/>
<line class="st2" x1="6" y1="5.9" x2="6.2" y2="5.9"/>
</svg>
