<?xml version="1.0" encoding="utf-8"?>
<!-- Generator: Adobe Illustrator 24.1.2, SVG Export Plug-In . SVG Version: 6.00 Build 0)  -->
<svg version="1.1" id="Layer_1" xmlns="http://www.w3.org/2000/svg" xmlns:xlink="http://www.w3.org/1999/xlink" x="0px" y="0px"
	 viewBox="0 0 37.9 42.6" style="enable-background:new 0 0 37.9 42.6;" xml:space="preserve">
<style type="text/css">
	.st0{fill:#679436;}
	.st1{fill:none;stroke:#679436;stroke-width:2;stroke-linecap:round;stroke-miterlimit:10;}
	.st2{fill:none;stroke:#679436;stroke-width:2;stroke-linecap:square;stroke-miterlimit:10;}
</style>
<g>
	<path class="st0" d="M31.7,2.3v38h-28v-38L31.7,2.3 M33.7,0.3l-32,0v42h32V0.3L33.7,0.3z"/>
</g>
<g id="Binder">
	<g id="Bottom_Set">
		<line id="Bottom" class="st1" x1="1.1" y1="34.6" x2="4.3" y2="34.6"/>
		<line id="_x32_nd_from_Bottom" class="st1" x1="1.1" y1="29.3" x2="4.3" y2="29.3"/>
		<line id="_x33_rd_from_Bottom" class="st1" x1="1.1" y1="24" x2="4.3" y2="24"/>
	</g>
	<g id="Top_Set">
		<line id="_x33_rd_from_Top" class="st1" x1="1.1" y1="18.8" x2="4.3" y2="18.8"/>
		<line id="_x32_nd_from_Top" class="st1" x1="1.1" y1="13.5" x2="4.3" y2="13.5"/>
		<line id="Top" class="st1" x1="1.1" y1="8.2" x2="4.3" y2="8.2"/>
	</g>
</g>
<g id="Subject_Card">
	<path class="st0" d="M22.6,9.1V14h-8.7V9.1H22.6 M24.6,7.1H11.8V16h12.7V7.1L24.6,7.1z"/>
</g>
<g id="Tabs">
	<path id="Outline_4_" class="st2" d="M33.6,5.5c3.3,0,3.2,2.5,3.2,2.5s0,20.7,0,23.1s-3.2,2.4-3.2,2.4"/>
	<line id="Bottom_Line" class="st2" x1="33.7" y1="26.4" x2="36" y2="26.4"/>
	<line id="Middle_Line" class="st2" x1="33.7" y1="19.4" x2="36" y2="19.4"/>
	<line id="Top_Line" class="st2" x1="33.7" y1="12.4" x2="36" y2="12.4"/>
</g>
</svg>
