<?xml version="1.0" encoding="utf-8"?>
<!-- Generator: Adobe Illustrator 24.1.2, SVG Export Plug-In . SVG Version: 6.00 Build 0)  -->
<svg version="1.1" id="Layer_1" xmlns="http://www.w3.org/2000/svg" xmlns:xlink="http://www.w3.org/1999/xlink" x="0px" y="0px"
	 viewBox="0 0 35.4 42.5" style="enable-background:new 0 0 35.4 42.5;" xml:space="preserve">
<style type="text/css">
	.st0{fill:#679436;}
</style>
<g id="Outline_6_">
	<path class="st0" d="M17.7,2.9c3,2.5,6,3.7,8.9,3.7c2.2,0,4.4-0.7,6.5-2.1v24.3c-2.4,5.5-7.6,9.3-15.5,11.3
		c-7-1.6-11.9-5.3-15.4-11.5V4.4c2.2,1.4,4.5,2.1,6.7,2.1C11.9,6.5,14.8,5.3,17.7,2.9 M35.2,0.2c-2.8,3-5.7,4.4-8.5,4.4
		c-3,0-5.9-1.5-8.9-4.4c-2.9,2.9-5.8,4.3-8.7,4.3C6,4.5,3.1,3.1,0.2,0.2v29c3.6,6.6,8.9,11.1,17.5,13c8.1-2,14.6-6.1,17.5-13V0.2
		L35.2,0.2z"/>
</g>
<g id="Cross_1_">
	<path class="st0" d="M19.1,10.9v5.1v2l2,0l5.4,0v3.3h-5.3h-2l0,2l0,5.3h-3.4v-5.3v-2h-2H8.9v-3.3l4.9,0l2,0l0-2l0-5.1H19.1
		 M21.1,8.9h-7.2l0,7l-7,0v7.3h6.9v7.3h7.4l0-7.3h7.3v-7.3l-7.4,0V8.9L21.1,8.9z"/>
</g>
</svg>
