<?xml version="1.0" encoding="utf-8"?>
<!-- Generator: Adobe Illustrator 24.1.2, SVG Export Plug-In . SVG Version: 6.00 Build 0)  -->
<svg version="1.1" id="Layer_1" xmlns="http://www.w3.org/2000/svg" xmlns:xlink="http://www.w3.org/1999/xlink" x="0px" y="0px"
	 viewBox="0 0 50 50" style="enable-background:new 0 0 50 50;" xml:space="preserve">
<style type="text/css">
	.st0{fill:#1877F2;}
	.st1{fill:#FFFFFF;}
</style>
<g>
	<path class="st0" d="M50,25C50,11.2,38.8,0,25,0S0,11.2,0,25c0,12.5,9.1,22.8,21.1,24.7V32.2h-6.3V25h6.3v-5.5
		c0-6.3,3.7-9.7,9.4-9.7c2.7,0,5.6,0.5,5.6,0.5v6.2H33c-3.1,0-4.1,1.9-4.1,3.9V25h6.9l-1.1,7.2h-5.8v17.5C40.9,47.8,50,37.5,50,25z"
		/>
	<path class="st1" d="M34.7,32.2l1.1-7.2h-6.9v-4.7c0-2,1-3.9,4.1-3.9h3.2v-6.2c0,0-2.9-0.5-5.6-0.5c-5.7,0-9.4,3.5-9.4,9.7V25h-6.3
		v7.2h6.3v17.5c1.3,0.2,2.6,0.3,3.9,0.3s2.6-0.1,3.9-0.3V32.2H34.7z"/>
</g>
</svg>
